<?xml version="1.0" encoding="utf-8"?>
<svg version="1.1" baseProfile="full" xmlns="http://www.w3.org/2000/svg" xmlns:xlink="http://www.w3.org/1999/xlink" xmlns:ev="http://www.w3.org/2001/xml-events" xml:space="preserve" x="0px" y="0px" width="21px" height="21px"  viewBox="0 0 21px 21px" preserveAspectRatio="none" shape-rendering="geometricPrecision"><path xmlns="http://www.w3.org/2000/svg" fill="rgb(255, 255, 255)" d="M13.576,10.499 L20.324,17.130 C21.230,18.019 21.225,19.456 20.313,20.340 C19.859,20.779 19.266,21.000 18.673,21.000 C18.075,21.000 17.477,20.776 17.022,20.329 L10.472,13.894 L3.937,20.329 C3.484,20.776 2.887,21.000 2.290,21.000 C1.699,21.000 1.107,20.779 0.655,20.340 C-0.255,19.456 -0.260,18.019 0.643,17.130 L7.376,10.499 L0.643,3.869 C-0.260,2.980 -0.255,1.542 0.655,0.659 C1.564,-0.225 3.034,-0.220 3.937,0.670 L10.472,7.105 L17.022,0.670 C17.928,-0.220 19.401,-0.225 20.313,0.659 C21.225,1.542 21.230,2.980 20.324,3.869 L13.576,10.499 Z"/></svg>