<?xml version="1.0" encoding="utf-8"?>
<svg version="1.1" baseProfile="full" xmlns="http://www.w3.org/2000/svg" xmlns:xlink="http://www.w3.org/1999/xlink" xmlns:ev="http://www.w3.org/2001/xml-events" xml:space="preserve" x="0px" y="0px" width="118px" height="14px"  viewBox="0 0 118px 14px" preserveAspectRatio="none" shape-rendering="geometricPrecision"><path xmlns="http://www.w3.org/2000/svg" fill="rgb(174, 103, 22)" d="M117.678,7.799 L111.767,13.710 C111.359,14.118 110.697,14.118 110.289,13.710 C109.881,13.302 109.881,12.640 110.289,12.232 L114.522,8.000 L13.920,8.000 C13.434,11.391 10.525,14.000 7.000,14.000 C3.134,14.000 -0.000,10.866 -0.000,7.000 C-0.000,3.134 3.134,-0.000 7.000,-0.000 C10.526,-0.000 13.434,2.609 13.920,6.000 L114.586,6.000 L110.464,1.878 C110.074,1.488 110.074,0.854 110.464,0.464 C110.855,0.073 111.488,0.073 111.879,0.464 L117.535,6.121 C117.605,6.190 117.658,6.270 117.703,6.352 C118.083,6.762 118.076,7.401 117.678,7.799 ZM7.000,2.000 C4.239,2.000 2.000,4.239 2.000,7.000 C2.000,9.761 4.239,12.000 7.000,12.000 C9.761,12.000 12.000,9.761 12.000,7.000 C12.000,4.239 9.761,2.000 7.000,2.000 Z"/></svg>