<?xml version="1.0" encoding="utf-8"?>
<svg version="1.1" baseProfile="full" xmlns="http://www.w3.org/2000/svg" xmlns:xlink="http://www.w3.org/1999/xlink" xmlns:ev="http://www.w3.org/2001/xml-events" xml:space="preserve" x="0px" y="0px" width="18px" height="13px"  viewBox="0 0 18px 13px" preserveAspectRatio="none" shape-rendering="geometricPrecision"><path xmlns="http://www.w3.org/2000/svg" d="M913.31 345C913.6899999999999 345 914 345.32 914 345.72L914 357.28000000000003C914 357.68 913.69 358.00000000000006 913.31 358.00000000000006L896.6899999999999 358.00000000000006C896.31 358.00000000000006 895.9999999999999 357.68000000000006 895.9999999999999 357.28000000000003L895.9999999999999 345.72C895.9999999999999 345.32000000000005 896.3099999999998 345 896.6899999999999 345ZM904.57 351.89C904.84 352.03999999999996 905.1800000000001 352.03 905.4200000000001 351.88L911.6600000000001 348.21999999999997C912.0100000000001 348.02 912.1000000000001 347.59999999999997 911.8700000000001 347.29999999999995C911.6400000000001 346.98999999999995 911.1700000000001 346.90999999999997 910.8200000000002 347.10999999999996L904.9900000000001 350.53L899.1800000000002 347.13C898.8300000000002 346.92 898.3600000000001 347 898.1300000000002 347.31C897.9000000000002 347.62 897.9900000000002 348.03000000000003 898.3400000000003 348.24ZM897 346L897 357L913 357L913 346Z " fill="rgb(249, 148, 32)" transform="matrix(1,0,0,1,-896,-345)"/></svg>