<?xml version="1.0" encoding="utf-8"?>
<svg version="1.1" baseProfile="full" xmlns="http://www.w3.org/2000/svg" xmlns:xlink="http://www.w3.org/1999/xlink" xmlns:ev="http://www.w3.org/2001/xml-events" xml:space="preserve" x="0px" y="0px" width="20px" height="20px"  viewBox="0 0 20px 20px" preserveAspectRatio="none" shape-rendering="geometricPrecision"><path xmlns="http://www.w3.org/2000/svg" d="M512.07 345.93C513.88 347.74 515 350.24 515 353C515 355.76 513.88 358.26 512.07 360.07C510.26000000000005 361.88 507.76000000000005 363 505.00000000000006 363C502.24000000000007 363 499.74000000000007 361.88 497.93000000000006 360.07C496.12000000000006 358.26 495.00000000000006 355.76 495.00000000000006 353C495.00000000000006 350.26 496.1000000000001 347.77 497.89000000000004 345.97C497.90000000000003 345.95000000000005 497.92 345.94000000000005 497.93000000000006 345.93C497.94000000000005 345.92 497.95000000000005 345.90000000000003 497.9700000000001 345.89C499.7700000000001 344.09999999999997 502.2600000000001 343 505.00000000000006 343C507.76000000000005 343 510.26000000000005 344.12 512.07 345.93ZM499.02 357.9C499.32 357.59999999999997 499.81 357.59999999999997 500.10999999999996 357.9C500.40999999999997 358.2 500.40999999999997 358.69 500.10999999999996 358.98999999999995L499.59 359.50999999999993C500.85999999999996 360.56999999999994 502.45 361.25999999999993 504.19 361.41999999999996L504.2 360.68999999999994C504.2 360.2699999999999 504.53999999999996 359.91999999999996 504.96999999999997 359.92999999999995C505.39 359.92999999999995 505.72999999999996 360.2699999999999 505.72999999999996 360.69999999999993L505.72999999999996 361.42999999999995C507.48999999999995 361.28 509.09999999999997 360.59 510.39 359.53L509.87 359C509.57 358.7 509.57 358.22 509.87 357.92C510.17 357.62 510.66 357.62 510.96 357.92L511.47999999999996 358.45C512.61 357.09999999999997 513.3299999999999 355.4 513.4499999999999 353.53L512.7099999999999 353.54999999999995C512.29 353.55999999999995 511.93999999999994 353.22999999999996 511.9199999999999 352.79999999999995C511.9099999999999 352.37999999999994 512.2499999999999 352.03 512.6699999999998 352.02L513.3999999999999 351.99C513.1999999999998 350.24 512.4499999999998 348.66 511.33999999999986 347.40000000000003L510.83999999999986 347.93C510.54999999999984 348.24 510.0599999999999 348.26 509.7599999999999 347.97C509.4499999999999 347.68 509.4299999999999 347.19000000000005 509.71999999999986 346.88000000000005L510.22999999999985 346.3500000000001C508.97999999999985 345.36000000000007 507.4399999999998 344.7200000000001 505.76999999999987 344.5700000000001L505.76999999999987 345.3100000000001C505.76999999999987 345.73000000000013 505.41999999999985 346.0800000000001 504.9999999999999 346.0800000000001C504.57999999999987 346.0800000000001 504.2299999999999 345.7300000000001 504.2299999999999 345.3100000000001L504.2299999999999 344.5700000000001C502.4699999999999 344.73000000000013 500.8699999999999 345.4300000000001 499.5899999999999 346.5000000000001L500.0999999999999 347.0200000000001C500.3999999999999 347.3200000000001 500.3999999999999 347.80000000000007 500.0999999999999 348.1000000000001C499.7999999999999 348.4000000000001 499.31999999999994 348.4000000000001 499.0199999999999 348.1000000000001L498.49999999999994 347.5800000000001C497.42999999999995 348.8700000000001 496.72999999999996 350.4800000000001 496.56999999999994 352.2500000000001L497.30999999999995 352.2400000000001C497.72999999999996 352.2400000000001 498.06999999999994 352.59000000000015 498.06999999999994 353.0100000000001C498.06999999999994 353.4300000000001 497.72999999999996 353.7800000000001 497.30999999999995 353.7800000000001L496.56999999999994 353.7800000000001C496.72999999999996 355.5400000000001 497.42999999999995 357.1400000000001 498.50999999999993 358.4200000000001ZM504.46 353.54C504.60999999999996 353.69 504.79999999999995 353.77000000000004 505 353.77000000000004L509.62 353.77000000000004C510.04 353.77000000000004 510.38 353.42 510.38 353.00000000000006C510.38 352.58000000000004 510.04 352.2300000000001 509.62 352.2300000000001L505.32 352.2300000000001L502.06 348.9800000000001C501.76 348.68000000000006 501.28000000000003 348.68000000000006 500.98 348.9800000000001C500.68 349.2800000000001 500.68 349.76000000000005 500.98 350.06000000000006Z " fill="rgb(249, 148, 32)" transform="matrix(1,0,0,1,-495,-343)"/></svg>