<?xml version="1.0" encoding="utf-8"?>
<svg version="1.1" baseProfile="full" xmlns="http://www.w3.org/2000/svg" xmlns:xlink="http://www.w3.org/1999/xlink" xmlns:ev="http://www.w3.org/2001/xml-events" xml:space="preserve" x="0px" y="0px" width="16px" height="20px"  viewBox="0 0 16px 20px" preserveAspectRatio="none" shape-rendering="geometricPrecision"><path xmlns="http://www.w3.org/2000/svg" d="M910.66 384.36C912.1 385.83000000000004 913 387.84000000000003 913 390.07C913 392.12 912.16 394.25 910.87 396.21C909.41 398.40999999999997 907.38 400.4 905.34 401.77L905 402L904.66 401.77C902.62 400.4 900.5899999999999 398.40999999999997 899.13 396.21C897.84 394.25 897 392.12 897 390.07C897 387.84 897.9 385.83 899.34 384.36C900.7900000000001 382.90000000000003 902.7900000000001 382 905 382C907.21 382 909.21 382.9 910.66 384.36ZM901.95 387C901.1700000000001 387.79 900.69 388.87 900.69 390.07C900.69 391.27 901.1700000000001 392.36 901.95 393.15C902.73 393.92999999999995 903.8100000000001 394.41999999999996 905 394.41999999999996C906.19 394.41999999999996 907.27 393.92999999999995 908.05 393.15C908.8299999999999 392.35999999999996 909.31 391.27 909.31 390.07C909.31 388.87 908.8299999999999 387.79 908.05 387C907.27 386.21 906.1899999999999 385.73 905 385.73C903.81 385.73 902.73 386.21000000000004 901.95 387ZM907.18 387.88C907.7299999999999 388.44 908.0799999999999 389.21999999999997 908.0799999999999 390.07C908.0799999999999 390.93 907.7299999999999 391.71 907.18 392.27C906.62 392.83 905.8499999999999 393.18 905 393.18C904.15 393.18 903.38 392.83 902.82 392.27C902.2700000000001 391.71 901.9200000000001 390.93 901.9200000000001 390.07C901.9200000000001 389.21999999999997 902.2700000000001 388.44 902.82 387.88C903.38 387.32 904.1500000000001 386.96999999999997 905 386.96999999999997C905.85 386.96999999999997 906.62 387.32 907.18 387.88ZM905 383.24C903.13 383.24 901.44 384.01 900.21 385.24C898.99 386.48 898.23 388.19 898.23 390.07C898.23 391.86 898.99 393.76 900.15 395.52L900.16 395.52C901.4399999999999 397.46 903.1999999999999 399.22999999999996 905 400.5C906.8 399.23 908.56 397.46 909.84 395.52L909.85 395.52C911.01 393.76 911.77 391.85999999999996 911.77 390.07C911.77 388.19 911.01 386.48 909.79 385.24C908.56 384.01 906.87 383.24 905 383.24Z " fill="rgb(249, 148, 32)" transform="matrix(1,0,0,1,-897,-382)"/></svg>