<?xml version="1.0" encoding="utf-8"?>
<svg version="1.1" baseProfile="full" xmlns="http://www.w3.org/2000/svg" xmlns:xlink="http://www.w3.org/1999/xlink" xmlns:ev="http://www.w3.org/2001/xml-events" xml:space="preserve" x="0px" y="0px" width="27px" height="30px"  viewBox="0 0 27px 30px" preserveAspectRatio="none" shape-rendering="geometricPrecision"><path xmlns="http://www.w3.org/2000/svg" d="M59.09 436C59.620000000000005 435.66 60.07 435.26 60.45 434.82C60.57 434.68 60.64 434.58 60.64 434.52C60.64 434.49 60.6 434.43 60.52 434.34C60.160000000000004 433.91999999999996 59.86000000000001 433.58 59.57 433.25C59.19 432.82 58.8 432.39 58.35 431.86L58.34 431.85C56.800000000000004 430.05 56.800000000000004 430.05 54.95 431.57000000000005C54.160000000000004 432.21000000000004 53.410000000000004 432.5400000000001 52.620000000000005 432.52000000000004C51.790000000000006 432.50000000000006 51.050000000000004 432.11 50.34 431.31000000000006C48.49 429.2300000000001 46.6 427.02000000000004 44.720000000000006 424.82000000000005L44.06000000000001 424.05000000000007C43.470000000000006 423.3500000000001 43.21000000000001 422.62000000000006 43.24000000000001 421.88000000000005C43.28000000000001 421.12000000000006 43.62000000000001 420.41 44.21000000000001 419.77000000000004C44.580000000000005 419.37000000000006 44.91000000000001 419.06000000000006 45.24000000000001 418.75000000000006C45.43000000000001 418.57000000000005 45.62000000000001 418.39000000000004 45.790000000000006 418.2300000000001C45.95 418.06000000000006 46.040000000000006 417.93000000000006 46.050000000000004 417.8400000000001C46.050000000000004 417.7600000000001 45.99 417.6500000000001 45.86000000000001 417.49000000000007L45.70000000000001 417.30000000000007C44.63000000000001 416.05000000000007 43.55000000000001 414.80000000000007 42.40000000000001 413.5200000000001C42.31000000000001 413.4200000000001 42.250000000000014 413.36000000000007 42.210000000000015 413.36000000000007C42.20000000000002 413.36000000000007 42.16000000000002 413.39000000000004 42.09000000000002 413.44000000000005C41.390000000000015 413.9800000000001 40.80000000000002 414.57000000000005 40.350000000000016 415.2300000000001C39.920000000000016 415.88000000000005 39.610000000000014 416.61000000000007 39.47000000000001 417.4500000000001C39.320000000000014 418.42000000000013 39.320000000000014 419.3700000000001 39.48000000000001 420.2900000000001C39.63000000000001 421.2200000000001 39.930000000000014 422.12000000000006 40.35000000000001 423.0100000000001C41.53000000000001 425.4600000000001 43.03000000000001 427.67000000000013 44.77000000000001 429.67000000000013C46.52000000000001 431.6900000000001 48.52000000000001 433.5000000000001 50.68000000000001 435.17000000000013C51.75000000000001 435.9900000000001 52.900000000000006 436.59000000000015 54.07000000000001 436.89000000000016C55.11000000000001 437.14000000000016 56.17000000000001 437.16000000000014 57.21000000000001 436.8600000000002C57.93000000000001 436.63000000000017 58.56000000000001 436.3400000000002 59.09000000000001 436.00000000000017ZM57.91 439.11L57.879999999999995 439.12C56.41 439.54 54.92999999999999 439.53000000000003 53.51 439.17C52.01 438.8 50.559999999999995 438.05 49.239999999999995 437.03000000000003C46.959999999999994 435.27000000000004 44.849999999999994 433.35 42.989999999999995 431.21000000000004C41.12 429.06000000000006 39.49999999999999 426.69000000000005 38.23 424.02000000000004C37.709999999999994 422.93000000000006 37.339999999999996 421.82000000000005 37.15 420.66C36.96 419.5 36.949999999999996 418.31 37.15 417.07000000000005C37.339999999999996 415.88000000000005 37.78 414.84000000000003 38.39 413.93000000000006C39 413.0300000000001 39.76 412.26000000000005 40.65 411.58000000000004C41.25 411.12000000000006 41.87 410.95000000000005 42.48 411.01000000000005C43.12 411.09000000000003 43.68 411.4200000000001 44.15 411.94000000000005C45.25 413.1600000000001 46.37 414.47 47.489999999999995 415.77000000000004L47.64999999999999 415.96000000000004C48.19999999999999 416.6 48.44999999999999 417.28000000000003 48.39999999999999 417.98C48.35999999999999 418.68 48.029999999999994 419.32 47.43999999999999 419.91C47.22999999999999 420.11 47.03999999999999 420.29 46.84999999999999 420.47C46.51999999999999 420.78000000000003 46.18999999999999 421.09000000000003 45.93999999999999 421.36C45.72999999999999 421.59000000000003 45.60999999999999 421.8 45.59999999999999 421.98C45.58999999999999 422.13 45.66999999999999 422.3 45.84999999999999 422.51L46.509999999999984 423.28999999999996C48.33999999999998 425.41999999999996 50.15999999999998 427.55999999999995 52.109999999999985 429.74999999999994C52.359999999999985 430.0299999999999 52.54999999999998 430.15999999999997 52.679999999999986 430.16999999999996C52.859999999999985 430.16999999999996 53.109999999999985 430.03 53.44999999999999 429.74999999999994C57.08999999999999 426.75999999999993 57.08999999999999 426.75999999999993 60.139999999999986 430.3299999999999L60.149999999999984 430.3399999999999C60.47999999999998 430.7399999999999 60.90999999999998 431.2199999999999 61.329999999999984 431.69999999999993C61.679999999999986 432.0899999999999 62.02999999999999 432.4799999999999 62.29999999999998 432.79999999999995C62.819999999999986 433.38999999999993 63.039999999999985 434.00999999999993 62.999999999999986 434.65999999999997C62.95999999999999 435.27 62.68999999999998 435.83 62.22999999999998 436.35999999999996C61.69999999999998 436.96999999999997 61.08999999999998 437.50999999999993 60.36999999999998 437.97999999999996C59.65999999999998 438.43999999999994 58.83999999999998 438.81999999999994 57.90999999999998 439.10999999999996Z " fill="rgb(249, 148, 32)" transform="matrix(1,0,0,1,-37,-410)"/></svg>