<?xml version="1.0" encoding="utf-8"?>
<svg version="1.1" baseProfile="full" xmlns="http://www.w3.org/2000/svg" xmlns:xlink="http://www.w3.org/1999/xlink" xmlns:ev="http://www.w3.org/2001/xml-events" xml:space="preserve" x="0px" y="0px" width="18px" height="17px"  viewBox="0 0 18px 17px" preserveAspectRatio="none" shape-rendering="geometricPrecision"><path xmlns="http://www.w3.org/2000/svg" d="M510.6 399.94C510.92 399.74 511.19 399.5 511.43 399.24C511.5 399.16 511.55 399.1 511.55 399.06C511.55 399.04 511.53000000000003 399.01 511.47 398.95C511.25 398.7 511.07000000000005 398.5 510.89000000000004 398.3C510.65000000000003 398.05 510.42 397.79 510.14000000000004 397.47L510.13000000000005 397.47L510.13000000000005 397.46000000000004C509.19000000000005 396.39000000000004 509.19000000000005 396.39000000000004 508.05000000000007 397.3C507.56000000000006 397.68 507.1000000000001 397.88 506.61000000000007 397.87C506.1000000000001 397.85 505.6500000000001 397.62 505.2100000000001 397.14C504.0700000000001 395.9 502.9100000000001 394.58 501.7500000000001 393.26L501.35000000000014 392.8C500.98000000000013 392.38 500.82000000000016 391.95 500.84000000000015 391.5C500.8600000000001 391.05 501.07000000000016 390.63 501.44000000000017 390.24C501.6600000000002 390.01 501.8700000000002 389.82 502.07000000000016 389.63C502.19000000000017 389.53 502.3100000000002 389.42 502.41000000000014 389.32C502.51000000000016 389.21999999999997 502.57000000000016 389.14 502.57000000000016 389.09C502.57000000000016 389.03999999999996 502.53000000000014 388.96999999999997 502.45000000000016 388.88L502.35000000000014 388.77C501.6900000000001 388.02 501.03000000000014 387.27 500.32000000000016 386.5C500.27000000000015 386.45 500.2300000000002 386.41 500.21000000000015 386.41C500.20000000000016 386.41 500.1800000000002 386.43 500.13000000000017 386.46000000000004C499.70000000000016 386.78000000000003 499.34000000000015 387.13000000000005 499.0600000000002 387.53000000000003C498.8000000000002 387.92 498.6100000000002 388.35 498.52000000000015 388.86C498.42000000000013 389.44 498.4300000000002 390 498.52000000000015 390.55C498.6200000000002 391.11 498.8000000000001 391.65000000000003 499.0600000000002 392.18C499.7900000000002 393.65000000000003 500.71000000000015 394.96 501.7800000000002 396.16C502.8600000000002 397.37 504.0900000000002 398.45000000000005 505.4200000000002 399.45000000000005C506.0800000000002 399.94000000000005 506.7900000000002 400.30000000000007 507.51000000000016 400.47C508.14000000000016 400.63000000000005 508.8000000000002 400.64000000000004 509.44000000000017 400.46000000000004L509.4300000000002 400.46000000000004C509.88000000000017 400.32000000000005 510.27000000000015 400.15000000000003 510.6000000000002 399.94000000000005ZM509.87 401.81L509.85 401.81C508.94 402.06 508.04 402.05 507.16 401.84C506.24 401.61999999999995 505.35 401.16999999999996 504.53000000000003 400.56C503.13000000000005 399.51 501.83000000000004 398.36 500.69000000000005 397.08C499.5400000000001 395.8 498.5400000000001 394.38 497.76000000000005 392.78C497.44000000000005 392.13 497.21000000000004 391.46999999999997 497.09000000000003 390.78C496.97 390.08 496.97 389.36999999999995 497.09000000000003 388.63C497.21000000000004 387.92 497.48 387.3 497.86 386.75C498.23 386.21 498.7 385.76 499.25 385.35C499.61 385.07000000000005 499.99 384.97 500.37 385.01000000000005C500.77 385.05000000000007 501.11 385.25000000000006 501.4 385.56000000000006C502.08 386.2900000000001 502.77 387.07000000000005 503.46 387.8500000000001L503.54999999999995 387.9600000000001C503.88999999999993 388.3500000000001 504.03999999999996 388.7500000000001 504.02 389.1700000000001C503.99 389.5900000000001 503.78999999999996 389.9800000000001 503.41999999999996 390.32000000000005C503.29999999999995 390.45000000000005 503.17999999999995 390.55000000000007 503.05999999999995 390.66C502.85999999999996 390.85 502.65999999999997 391.03000000000003 502.49999999999994 391.19C502.36999999999995 391.33 502.29999999999995 391.46 502.28999999999996 391.56C502.28999999999996 391.65 502.34 391.76 502.45 391.88L502.84999999999997 392.34C503.97999999999996 393.61999999999995 505.09999999999997 394.9 506.29999999999995 396.21C506.44999999999993 396.38 506.56999999999994 396.46 506.65 396.46C506.76 396.46 506.91999999999996 396.38 507.13 396.21C509.37 394.41999999999996 509.37 394.41999999999996 511.24 396.56C511.45 396.8 511.71000000000004 397.09 511.97 397.37C512.19 397.61 512.4 397.84000000000003 512.57 398.03000000000003C512.8900000000001 398.39000000000004 513.0200000000001 398.76000000000005 513 399.14000000000004C512.97 399.51000000000005 512.81 399.85 512.53 400.16C512.1999999999999 400.53000000000003 511.82 400.85 511.38 401.13000000000005C510.94 401.40000000000003 510.44 401.63000000000005 509.87 401.81000000000006Z " fill="rgb(249, 148, 32)" transform="matrix(1,0,0,1,-496,-385)"/></svg>