<?xml version="1.0" encoding="utf-8"?>
<svg version="1.1" baseProfile="full" xmlns="http://www.w3.org/2000/svg" xmlns:xlink="http://www.w3.org/1999/xlink" xmlns:ev="http://www.w3.org/2001/xml-events" xml:space="preserve" x="0px" y="0px" width="48px" height="48px"  viewBox="0 0 48px 48px" preserveAspectRatio="none" shape-rendering="geometricPrecision"><path xmlns="http://www.w3.org/2000/svg" fill="rgb(249, 148, 32)" d="M40.977,40.966 C36.447,45.496 30.419,47.990 24.006,47.990 C17.592,47.990 11.565,45.494 7.026,40.962 C-2.329,31.609 -2.329,16.389 7.030,7.035 C11.561,2.505 17.592,0.010 24.002,0.010 C30.415,0.010 36.443,2.505 40.973,7.035 C45.508,11.566 48.008,17.591 48.008,24.000 C48.008,30.410 45.512,36.435 40.977,40.966 ZM38.091,9.915 C34.329,6.156 29.325,4.084 24.002,4.084 C18.679,4.084 13.675,6.156 9.913,9.915 C2.141,17.681 2.141,30.317 9.908,38.081 C13.675,41.843 18.683,43.915 24.006,43.915 C29.328,43.915 34.333,41.845 38.095,38.085 C41.857,34.324 43.931,29.322 43.931,24.000 C43.931,18.679 41.857,13.677 38.091,9.915 ZM30.379,35.300 C29.981,35.698 29.460,35.897 28.938,35.897 C28.417,35.897 27.895,35.698 27.497,35.300 L17.628,25.440 C17.246,25.058 17.031,24.540 17.031,23.999 C17.031,23.459 17.246,22.941 17.628,22.559 L27.497,12.700 C28.293,11.904 29.583,11.904 30.379,12.700 C31.176,13.495 31.176,14.785 30.379,15.580 L21.951,23.999 L30.379,32.420 C31.176,33.214 31.176,34.504 30.379,35.300 Z"/></svg>