<?xml version="1.0" encoding="utf-8"?>
<svg version="1.1" baseProfile="full" xmlns="http://www.w3.org/2000/svg" xmlns:xlink="http://www.w3.org/1999/xlink" xmlns:ev="http://www.w3.org/2001/xml-events" xml:space="preserve" x="0px" y="0px" width="21px" height="23px"  viewBox="0 0 21px 23px" preserveAspectRatio="none" shape-rendering="geometricPrecision"><path xmlns="http://www.w3.org/2000/svg" d="M166 74.31C166.4 74.05 166.74 73.75 167.04 73.41C167.13 73.3 167.17999999999998 73.22 167.17999999999998 73.17C167.18999999999997 73.15 167.15999999999997 73.10000000000001 167.08999999999997 73.03C166.80999999999997 72.71000000000001 166.58999999999997 72.45 166.35999999999999 72.19C166.07 71.86 165.76999999999998 71.53 165.42999999999998 71.12L165.42 71.12L165.41 71.11L165.42 71.11C164.23 69.71 164.23 69.72 162.80999999999997 70.89C162.19999999999996 71.39 161.61999999999998 71.64 161.00999999999996 71.63C160.37999999999997 71.61 159.80999999999997 71.31 159.25999999999996 70.69C157.83999999999997 69.08 156.38999999999996 67.38 154.93999999999997 65.67L154.42999999999998 65.08C153.98 64.53999999999999 153.77999999999997 63.98 153.79999999999998 63.4C153.82999999999998 62.82 154.08999999999997 62.269999999999996 154.54999999999998 61.769999999999996C154.82999999999998 61.47 155.07999999999998 61.23 155.33999999999997 60.989999999999995C155.47999999999996 60.849999999999994 155.62999999999997 60.709999999999994 155.75999999999996 60.589999999999996C155.88999999999996 60.459999999999994 155.95999999999995 60.36 155.95999999999995 60.279999999999994C155.95999999999995 60.21999999999999 155.91999999999996 60.129999999999995 155.80999999999995 60.00999999999999L155.68999999999994 59.86999999999999C154.86999999999995 58.89999999999999 154.03999999999994 57.92999999999999 153.14999999999995 56.93999999999999C153.08999999999995 56.86999999999999 153.03999999999994 56.82999999999999 153.00999999999996 56.81999999999999C152.99999999999997 56.81999999999999 152.96999999999997 56.839999999999996 152.91999999999996 56.88999999999999C152.37999999999997 57.29999999999999 151.91999999999996 57.75999999999999 151.57999999999996 58.269999999999996C151.24999999999994 58.769999999999996 151.00999999999996 59.33 150.89999999999995 59.989999999999995C150.77999999999994 60.739999999999995 150.78999999999994 61.46999999999999 150.89999999999995 62.17999999999999C151.01999999999995 62.88999999999999 151.24999999999994 63.58999999999999 151.57999999999996 64.27999999999999C152.47999999999996 66.17999999999999 153.63999999999996 67.87999999999998 154.97999999999996 69.42999999999999C156.32999999999996 70.97999999999999 157.85999999999996 72.38 159.51999999999995 73.66999999999999C160.34999999999997 74.30999999999999 161.22999999999996 74.76999999999998 162.12999999999997 74.99999999999999C162.92999999999998 75.19999999999999 163.73999999999998 75.20999999999998 164.53999999999996 74.97999999999999C165.09999999999997 74.79999999999998 165.57999999999996 74.57999999999998 165.99999999999997 74.30999999999999ZM165.08 76.72L165.06 76.72C163.93 77.05 162.8 77.03999999999999 161.7 76.77C160.54 76.47999999999999 159.42999999999998 75.89999999999999 158.42 75.11C156.66 73.75 155.04 72.27 153.60999999999999 70.62C152.17 68.96000000000001 150.92999999999998 67.12 149.95 65.06C149.54999999999998 64.22 149.26 63.36 149.10999999999999 62.47C148.97 61.57 148.95999999999998 60.64 149.10999999999999 59.69C149.26 58.769999999999996 149.6 57.97 150.07 57.26C150.54 56.57 151.13 55.98 151.81 55.449999999999996C152.27 55.089999999999996 152.74 54.959999999999994 153.21 55.01L153.22 55.01C153.71 55.07 154.14 55.32 154.5 55.73C155.35 56.669999999999995 156.21 57.68 157.07 58.69L157.19 58.83C157.62 59.33 157.8 59.85 157.77 60.39C157.74 60.93 157.49 61.43 157.03 61.88C156.87 62.04 156.72 62.18 156.58 62.32C156.33 62.56 156.07000000000002 62.8 155.88000000000002 63.01C155.71000000000004 63.18 155.62000000000003 63.35 155.61 63.48C155.61 63.599999999999994 155.67000000000002 63.73 155.81 63.9L156.32 64.49C157.72 66.14 159.13 67.8 160.62 69.47999999999999C160.81 69.69999999999999 160.96 69.80999999999999 161.06 69.80999999999999C161.2 69.80999999999999 161.4 69.69999999999999 161.66 69.49C164.46 67.17999999999999 164.46 67.17999999999999 166.79999999999998 69.94C167.05999999999997 70.25 167.39 70.62 167.71999999999997 70.99C167.98999999999998 71.28999999999999 168.24999999999997 71.6 168.45999999999998 71.83999999999999C168.85999999999999 72.29999999999998 169.02999999999997 72.77999999999999 168.99999999999997 73.27999999999999C168.96999999999997 73.74999999999999 168.75999999999996 74.18999999999998 168.40999999999997 74.59999999999998C167.99999999999997 75.06999999999998 167.52999999999997 75.48999999999998 166.97999999999996 75.83999999999997C166.42999999999995 76.19999999999997 165.79999999999995 76.48999999999998 165.07999999999996 76.71999999999997Z " fill="rgb(249, 148, 32)" transform="matrix(1,0,0,1,-149,-54)"/></svg>