<?xml version="1.0" encoding="utf-8"?>
<svg version="1.1" baseProfile="full" xmlns="http://www.w3.org/2000/svg" xmlns:xlink="http://www.w3.org/1999/xlink" xmlns:ev="http://www.w3.org/2001/xml-events" xml:space="preserve" x="0px" y="0px" width="26px" height="18px"  viewBox="0 0 26px 18px" preserveAspectRatio="none" shape-rendering="geometricPrecision"><path xmlns="http://www.w3.org/2000/svg" d="M171 269C171.55 269 172 269.45 172 270L172 286C172 286.55 171.55 287 171 287L147 287C146.45 287 146 286.55 146 286L146 270C146 269.45 146.45 269 147 269ZM158.45 279.63C158.79999999999998 279.87 159.25 279.85 159.57 279.62L167.79999999999998 274.14C168.26 273.83 168.38 273.21 168.07999999999998 272.75C167.76999999999998 272.29 167.14999999999998 272.16 166.69 272.47L159 277.6L151.34 272.49C150.88 272.19 150.26 272.31 149.95000000000002 272.77C149.65 273.22999999999996 149.77 273.84999999999997 150.23000000000002 274.15999999999997ZM148 271L148 285L170 285L170 271Z " fill="rgb(249, 148, 32)" transform="matrix(1,0,0,1,-146,-269)"/></svg>