<?xml version="1.0" encoding="utf-8"?>
<svg version="1.1" baseProfile="full" xmlns="http://www.w3.org/2000/svg" xmlns:xlink="http://www.w3.org/1999/xlink" xmlns:ev="http://www.w3.org/2001/xml-events" xml:space="preserve" x="0px" y="0px" width="20px" height="25px"  viewBox="0 0 20px 25px" preserveAspectRatio="none" shape-rendering="geometricPrecision"><path xmlns="http://www.w3.org/2000/svg" d="M166.07 144.92C167.88 146.73 169 149.22 169 151.98C169 154.51 167.95 157.14999999999998 166.34 159.56C164.52 162.29 161.97 164.74 159.43 166.44L159 166.72L158.57 166.44C156.03 164.74 153.48 162.29 151.66 159.56C150.04999999999998 157.15 149 154.51 149 151.98C149 149.22 150.12 146.73 151.93 144.92C153.74 143.11999999999998 156.24 142 159 142C161.76 142 164.26 143.12 166.07 144.92ZM155.19 148.18C154.22 149.15 153.62 150.5 153.62 151.98000000000002C153.62 153.46 154.22 154.81000000000003 155.19 155.78000000000003C156.17 156.75000000000003 157.51 157.35000000000002 159 157.35000000000002C160.49 157.35000000000002 161.83 156.75000000000003 162.81 155.78000000000003C163.78 154.81000000000003 164.38 153.46000000000004 164.38 151.98000000000002C164.38 150.50000000000003 163.78 149.15 162.81 148.18C161.83 147.21 160.49 146.61 159 146.61C157.51 146.61 156.17 147.21 155.19 148.18ZM161.72 149.27C162.42 149.96 162.85 150.92000000000002 162.85 151.98000000000002C162.85 153.04000000000002 162.42 154.00000000000003 161.72 154.69000000000003C161.02 155.39000000000001 160.06 155.82000000000002 159 155.82000000000002C157.94 155.82000000000002 156.98 155.39000000000001 156.28 154.69000000000003C155.58 154.00000000000003 155.15 153.04000000000002 155.15 151.98000000000002C155.15 150.92000000000002 155.58 149.96 156.28 149.27C156.98 148.57000000000002 157.94 148.14000000000001 159 148.14000000000001C160.06 148.14000000000001 161.02 148.57000000000002 161.72 149.27ZM159 143.54C156.66 143.54 154.55 144.48 153.02 146.01C151.49 147.54 150.54000000000002 149.64999999999998 150.54000000000002 151.98C150.54000000000002 154.19 151.49 156.53 152.94000000000003 158.70999999999998C154.55000000000004 161.10999999999999 156.76000000000002 163.29999999999998 159.00000000000003 164.86999999999998C161.24000000000004 163.29999999999998 163.45000000000002 161.10999999999999 165.06000000000003 158.70999999999998C166.51000000000002 156.52999999999997 167.46000000000004 154.18999999999997 167.46000000000004 151.98C167.46000000000004 149.64999999999998 166.51000000000005 147.54 164.98000000000005 146.01C163.45000000000005 144.48 161.34000000000006 143.54 159.00000000000006 143.54Z " fill="rgb(249, 148, 32)" transform="matrix(1,0,0,1,-149,-142)"/></svg>